<mxfile host="app.diagrams.net" modified="2022-11-07T02:03:11.716Z" agent="5.0 (Windows NT 10.0; Win64; x64) AppleWebKit/537.36 (KHTML, like Gecko) Chrome/107.0.0.0 Safari/537.36 Edg/107.0.1418.26" etag="o43IOhafTGi9aU1loo2K" version="20.5.3" type="github">
  <diagram id="C5RBs43oDa-KdzZeNtuy" name="Page-1">
    <mxGraphModel dx="1422" dy="762" grid="1" gridSize="10" guides="1" tooltips="1" connect="1" arrows="1" fold="1" page="1" pageScale="1" pageWidth="827" pageHeight="1169" math="0" shadow="0">
      <root>
        <mxCell id="WIyWlLk6GJQsqaUBKTNV-0" />
        <mxCell id="WIyWlLk6GJQsqaUBKTNV-1" parent="WIyWlLk6GJQsqaUBKTNV-0" />
        <mxCell id="UPQadzczAUyeNgyHqivV-0" value="" style="edgeStyle=orthogonalEdgeStyle;rounded=0;orthogonalLoop=1;jettySize=auto;html=1;" edge="1" parent="WIyWlLk6GJQsqaUBKTNV-1" source="UPQadzczAUyeNgyHqivV-1" target="UPQadzczAUyeNgyHqivV-13">
          <mxGeometry relative="1" as="geometry" />
        </mxCell>
        <mxCell id="UPQadzczAUyeNgyHqivV-1" value="提交任务清单&lt;br&gt;挂号" style="rounded=1;whiteSpace=wrap;html=1;fontSize=12;glass=0;strokeWidth=1;shadow=0;fillColor=#f8cecc;strokeColor=#b85450;" vertex="1" parent="WIyWlLk6GJQsqaUBKTNV-1">
          <mxGeometry x="550" y="280" width="120" height="40" as="geometry" />
        </mxCell>
        <mxCell id="UPQadzczAUyeNgyHqivV-2" value="" style="edgeStyle=none;rounded=0;orthogonalLoop=1;jettySize=auto;html=1;" edge="1" parent="WIyWlLk6GJQsqaUBKTNV-1" source="UPQadzczAUyeNgyHqivV-3" target="UPQadzczAUyeNgyHqivV-1">
          <mxGeometry relative="1" as="geometry" />
        </mxCell>
        <mxCell id="UPQadzczAUyeNgyHqivV-3" value="接收问题清单" style="rounded=1;whiteSpace=wrap;html=1;fontSize=12;glass=0;strokeWidth=1;shadow=0;fillColor=#d5e8d4;strokeColor=#82b366;" vertex="1" parent="WIyWlLk6GJQsqaUBKTNV-1">
          <mxGeometry x="550" y="190" width="120" height="40" as="geometry" />
        </mxCell>
        <mxCell id="UPQadzczAUyeNgyHqivV-4" value="" style="edgeStyle=orthogonalEdgeStyle;rounded=0;orthogonalLoop=1;jettySize=auto;html=1;" edge="1" parent="WIyWlLk6GJQsqaUBKTNV-1" source="UPQadzczAUyeNgyHqivV-5" target="UPQadzczAUyeNgyHqivV-7">
          <mxGeometry relative="1" as="geometry" />
        </mxCell>
        <mxCell id="UPQadzczAUyeNgyHqivV-5" value="创建项目" style="rounded=1;whiteSpace=wrap;html=1;fontSize=12;glass=0;strokeWidth=1;shadow=0;fillColor=#dae8fc;strokeColor=#6c8ebf;" vertex="1" parent="WIyWlLk6GJQsqaUBKTNV-1">
          <mxGeometry x="350" y="100" width="120" height="40" as="geometry" />
        </mxCell>
        <mxCell id="UPQadzczAUyeNgyHqivV-6" value="" style="edgeStyle=orthogonalEdgeStyle;rounded=0;orthogonalLoop=1;jettySize=auto;html=1;" edge="1" parent="WIyWlLk6GJQsqaUBKTNV-1" source="UPQadzczAUyeNgyHqivV-7" target="UPQadzczAUyeNgyHqivV-3">
          <mxGeometry relative="1" as="geometry" />
        </mxCell>
        <mxCell id="UPQadzczAUyeNgyHqivV-7" value="发布问题清单" style="rounded=1;whiteSpace=wrap;html=1;fontSize=12;glass=0;strokeWidth=1;shadow=0;fillColor=#e1d5e7;strokeColor=#9673a6;" vertex="1" parent="WIyWlLk6GJQsqaUBKTNV-1">
          <mxGeometry x="350" y="190" width="120" height="40" as="geometry" />
        </mxCell>
        <mxCell id="UPQadzczAUyeNgyHqivV-8" value="" style="edgeStyle=orthogonalEdgeStyle;rounded=0;orthogonalLoop=1;jettySize=auto;html=1;" edge="1" parent="WIyWlLk6GJQsqaUBKTNV-1" source="UPQadzczAUyeNgyHqivV-11" target="UPQadzczAUyeNgyHqivV-15">
          <mxGeometry relative="1" as="geometry" />
        </mxCell>
        <mxCell id="UPQadzczAUyeNgyHqivV-9" style="rounded=0;orthogonalLoop=1;jettySize=auto;html=1;exitX=1;exitY=0;exitDx=0;exitDy=0;entryX=0;entryY=1;entryDx=0;entryDy=0;" edge="1" parent="WIyWlLk6GJQsqaUBKTNV-1" source="UPQadzczAUyeNgyHqivV-11" target="UPQadzczAUyeNgyHqivV-1">
          <mxGeometry relative="1" as="geometry" />
        </mxCell>
        <mxCell id="UPQadzczAUyeNgyHqivV-10" style="edgeStyle=none;rounded=0;orthogonalLoop=1;jettySize=auto;html=1;" edge="1" parent="WIyWlLk6GJQsqaUBKTNV-1" source="UPQadzczAUyeNgyHqivV-11">
          <mxGeometry relative="1" as="geometry">
            <mxPoint x="310" y="410" as="targetPoint" />
          </mxGeometry>
        </mxCell>
        <mxCell id="UPQadzczAUyeNgyHqivV-11" value="是否通过" style="rhombus;whiteSpace=wrap;html=1;shadow=0;fontFamily=Helvetica;fontSize=12;align=center;strokeWidth=1;spacing=6;spacingTop=-4;fillColor=#fff2cc;strokeColor=#d6b656;" vertex="1" parent="WIyWlLk6GJQsqaUBKTNV-1">
          <mxGeometry x="360" y="370" width="100" height="80" as="geometry" />
        </mxCell>
        <mxCell id="UPQadzczAUyeNgyHqivV-12" value="" style="edgeStyle=orthogonalEdgeStyle;rounded=0;orthogonalLoop=1;jettySize=auto;html=1;" edge="1" parent="WIyWlLk6GJQsqaUBKTNV-1" source="UPQadzczAUyeNgyHqivV-13" target="UPQadzczAUyeNgyHqivV-11">
          <mxGeometry relative="1" as="geometry" />
        </mxCell>
        <mxCell id="UPQadzczAUyeNgyHqivV-13" value="接收任务清单" style="rounded=1;whiteSpace=wrap;html=1;fontSize=12;glass=0;strokeWidth=1;shadow=0;fillColor=#ffe6cc;strokeColor=#d79b00;" vertex="1" parent="WIyWlLk6GJQsqaUBKTNV-1">
          <mxGeometry x="350" y="280" width="120" height="40" as="geometry" />
        </mxCell>
        <mxCell id="UPQadzczAUyeNgyHqivV-14" value="" style="edgeStyle=none;rounded=0;orthogonalLoop=1;jettySize=auto;html=1;" edge="1" parent="WIyWlLk6GJQsqaUBKTNV-1" source="UPQadzczAUyeNgyHqivV-15" target="UPQadzczAUyeNgyHqivV-19">
          <mxGeometry relative="1" as="geometry" />
        </mxCell>
        <mxCell id="UPQadzczAUyeNgyHqivV-15" value="任务确定，待办任务" style="rounded=1;whiteSpace=wrap;html=1;fontSize=12;glass=0;strokeWidth=1;shadow=0;fillColor=#d5e8d4;strokeColor=#82b366;" vertex="1" parent="WIyWlLk6GJQsqaUBKTNV-1">
          <mxGeometry x="550" y="390" width="120" height="40" as="geometry" />
        </mxCell>
        <mxCell id="UPQadzczAUyeNgyHqivV-16" value="通过" style="text;html=1;align=center;verticalAlign=middle;resizable=0;points=[];autosize=1;strokeColor=none;fillColor=none;" vertex="1" parent="WIyWlLk6GJQsqaUBKTNV-1">
          <mxGeometry x="485" y="385" width="50" height="30" as="geometry" />
        </mxCell>
        <mxCell id="UPQadzczAUyeNgyHqivV-17" value="不通过，沟通交流" style="text;html=1;align=center;verticalAlign=middle;resizable=0;points=[];autosize=1;strokeColor=none;fillColor=none;" vertex="1" parent="WIyWlLk6GJQsqaUBKTNV-1">
          <mxGeometry x="430" y="340" width="120" height="30" as="geometry" />
        </mxCell>
        <mxCell id="UPQadzczAUyeNgyHqivV-18" value="" style="edgeStyle=none;rounded=0;orthogonalLoop=1;jettySize=auto;html=1;" edge="1" parent="WIyWlLk6GJQsqaUBKTNV-1" source="UPQadzczAUyeNgyHqivV-19" target="UPQadzczAUyeNgyHqivV-21">
          <mxGeometry relative="1" as="geometry" />
        </mxCell>
        <mxCell id="UPQadzczAUyeNgyHqivV-19" value="申请完成任务&lt;br&gt;销号" style="rounded=1;whiteSpace=wrap;html=1;fontSize=12;glass=0;strokeWidth=1;shadow=0;fillColor=#e1d5e7;strokeColor=#9673a6;" vertex="1" parent="WIyWlLk6GJQsqaUBKTNV-1">
          <mxGeometry x="550" y="500" width="120" height="40" as="geometry" />
        </mxCell>
        <mxCell id="UPQadzczAUyeNgyHqivV-20" value="" style="edgeStyle=none;rounded=0;orthogonalLoop=1;jettySize=auto;html=1;" edge="1" parent="WIyWlLk6GJQsqaUBKTNV-1" source="UPQadzczAUyeNgyHqivV-21" target="UPQadzczAUyeNgyHqivV-25">
          <mxGeometry relative="1" as="geometry" />
        </mxCell>
        <mxCell id="UPQadzczAUyeNgyHqivV-21" value="接收问题销号申请" style="rounded=1;whiteSpace=wrap;html=1;fontSize=12;glass=0;strokeWidth=1;shadow=0;fillColor=#ffe6cc;strokeColor=#d79b00;" vertex="1" parent="WIyWlLk6GJQsqaUBKTNV-1">
          <mxGeometry x="350" y="500" width="120" height="40" as="geometry" />
        </mxCell>
        <mxCell id="UPQadzczAUyeNgyHqivV-22" value="" style="edgeStyle=none;rounded=0;orthogonalLoop=1;jettySize=auto;html=1;" edge="1" parent="WIyWlLk6GJQsqaUBKTNV-1" source="UPQadzczAUyeNgyHqivV-25" target="UPQadzczAUyeNgyHqivV-27">
          <mxGeometry relative="1" as="geometry" />
        </mxCell>
        <mxCell id="UPQadzczAUyeNgyHqivV-23" style="edgeStyle=none;rounded=0;orthogonalLoop=1;jettySize=auto;html=1;exitX=1;exitY=0;exitDx=0;exitDy=0;entryX=0;entryY=1;entryDx=0;entryDy=0;" edge="1" parent="WIyWlLk6GJQsqaUBKTNV-1" source="UPQadzczAUyeNgyHqivV-25" target="UPQadzczAUyeNgyHqivV-19">
          <mxGeometry relative="1" as="geometry" />
        </mxCell>
        <mxCell id="UPQadzczAUyeNgyHqivV-24" style="edgeStyle=none;rounded=0;orthogonalLoop=1;jettySize=auto;html=1;fontSize=16;" edge="1" parent="WIyWlLk6GJQsqaUBKTNV-1" source="UPQadzczAUyeNgyHqivV-25">
          <mxGeometry relative="1" as="geometry">
            <mxPoint x="310" y="630" as="targetPoint" />
          </mxGeometry>
        </mxCell>
        <mxCell id="UPQadzczAUyeNgyHqivV-25" value="是否通过" style="rhombus;whiteSpace=wrap;html=1;shadow=0;fontFamily=Helvetica;fontSize=12;align=center;strokeWidth=1;spacing=6;spacingTop=-4;fillColor=#fff2cc;strokeColor=#d6b656;" vertex="1" parent="WIyWlLk6GJQsqaUBKTNV-1">
          <mxGeometry x="360" y="590" width="100" height="80" as="geometry" />
        </mxCell>
        <mxCell id="UPQadzczAUyeNgyHqivV-26" value="" style="edgeStyle=none;rounded=0;orthogonalLoop=1;jettySize=auto;html=1;" edge="1" parent="WIyWlLk6GJQsqaUBKTNV-1" source="UPQadzczAUyeNgyHqivV-27" target="UPQadzczAUyeNgyHqivV-30">
          <mxGeometry relative="1" as="geometry" />
        </mxCell>
        <mxCell id="UPQadzczAUyeNgyHqivV-27" value="任务完成" style="rounded=1;whiteSpace=wrap;html=1;fontSize=12;glass=0;strokeWidth=1;shadow=0;fillColor=#d5e8d4;strokeColor=#82b366;" vertex="1" parent="WIyWlLk6GJQsqaUBKTNV-1">
          <mxGeometry x="550" y="610" width="120" height="40" as="geometry" />
        </mxCell>
        <mxCell id="UPQadzczAUyeNgyHqivV-28" value="通过" style="text;html=1;align=center;verticalAlign=middle;resizable=0;points=[];autosize=1;strokeColor=none;fillColor=none;" vertex="1" parent="WIyWlLk6GJQsqaUBKTNV-1">
          <mxGeometry x="485" y="607" width="50" height="30" as="geometry" />
        </mxCell>
        <mxCell id="UPQadzczAUyeNgyHqivV-29" value="不通过，沟通交流" style="text;html=1;align=center;verticalAlign=middle;resizable=0;points=[];autosize=1;strokeColor=none;fillColor=none;" vertex="1" parent="WIyWlLk6GJQsqaUBKTNV-1">
          <mxGeometry x="430" y="560" width="120" height="30" as="geometry" />
        </mxCell>
        <mxCell id="UPQadzczAUyeNgyHqivV-30" value="所有问题清零后&lt;br&gt;整改完成" style="rounded=1;whiteSpace=wrap;html=1;fontSize=12;glass=0;strokeWidth=1;shadow=0;fillColor=#d5e8d4;strokeColor=#82b366;" vertex="1" parent="WIyWlLk6GJQsqaUBKTNV-1">
          <mxGeometry x="550" y="720" width="120" height="40" as="geometry" />
        </mxCell>
        <mxCell id="UPQadzczAUyeNgyHqivV-31" value="审计平台" style="swimlane;startSize=23;fontSize=16;fillColor=#dae8fc;strokeColor=#6c8ebf;" vertex="1" parent="WIyWlLk6GJQsqaUBKTNV-1">
          <mxGeometry x="90" y="50" width="410" height="770" as="geometry" />
        </mxCell>
        <mxCell id="UPQadzczAUyeNgyHqivV-32" value="问题挂号审批" style="swimlane;fillColor=#fff2cc;strokeColor=#d6b656;" vertex="1" parent="UPQadzczAUyeNgyHqivV-31">
          <mxGeometry x="20" y="260" width="200" height="175" as="geometry" />
        </mxCell>
        <mxCell id="UPQadzczAUyeNgyHqivV-33" value="" style="edgeStyle=none;rounded=0;orthogonalLoop=1;jettySize=auto;html=1;entryX=0.5;entryY=0;entryDx=0;entryDy=0;" edge="1" parent="UPQadzczAUyeNgyHqivV-32" source="UPQadzczAUyeNgyHqivV-34" target="UPQadzczAUyeNgyHqivV-35">
          <mxGeometry relative="1" as="geometry">
            <mxPoint x="100" y="105" as="targetPoint" />
          </mxGeometry>
        </mxCell>
        <mxCell id="UPQadzczAUyeNgyHqivV-34" value="主审审批" style="rounded=1;whiteSpace=wrap;html=1;fontSize=12;glass=0;strokeWidth=1;shadow=0;fillColor=#fff2cc;strokeColor=#d6b656;" vertex="1" parent="UPQadzczAUyeNgyHqivV-32">
          <mxGeometry x="40" y="50" width="120" height="40" as="geometry" />
        </mxCell>
        <mxCell id="UPQadzczAUyeNgyHqivV-35" value="组长审批" style="rounded=1;whiteSpace=wrap;html=1;fontSize=12;glass=0;strokeWidth=1;shadow=0;fillColor=#f8cecc;strokeColor=#b85450;" vertex="1" parent="UPQadzczAUyeNgyHqivV-32">
          <mxGeometry x="40" y="115" width="120" height="40" as="geometry" />
        </mxCell>
        <mxCell id="UPQadzczAUyeNgyHqivV-36" value="问题销号审批" style="swimlane;fillColor=#ffe6cc;strokeColor=#d79b00;" vertex="1" parent="UPQadzczAUyeNgyHqivV-31">
          <mxGeometry x="20" y="460" width="200" height="290" as="geometry" />
        </mxCell>
        <mxCell id="UPQadzczAUyeNgyHqivV-37" value="" style="edgeStyle=none;rounded=0;orthogonalLoop=1;jettySize=auto;html=1;fontSize=16;" edge="1" parent="UPQadzczAUyeNgyHqivV-36" source="UPQadzczAUyeNgyHqivV-38" target="UPQadzczAUyeNgyHqivV-40">
          <mxGeometry relative="1" as="geometry" />
        </mxCell>
        <mxCell id="UPQadzczAUyeNgyHqivV-38" value="主审审批" style="rounded=1;whiteSpace=wrap;html=1;fontSize=12;glass=0;strokeWidth=1;shadow=0;fillColor=#fff2cc;strokeColor=#d6b656;" vertex="1" parent="UPQadzczAUyeNgyHqivV-36">
          <mxGeometry x="40" y="36" width="120" height="40" as="geometry" />
        </mxCell>
        <mxCell id="UPQadzczAUyeNgyHqivV-39" value="" style="edgeStyle=none;rounded=0;orthogonalLoop=1;jettySize=auto;html=1;fontSize=16;entryX=0.5;entryY=0;entryDx=0;entryDy=0;" edge="1" parent="UPQadzczAUyeNgyHqivV-36" source="UPQadzczAUyeNgyHqivV-40" target="UPQadzczAUyeNgyHqivV-42">
          <mxGeometry relative="1" as="geometry">
            <mxPoint x="100" y="160" as="targetPoint" />
          </mxGeometry>
        </mxCell>
        <mxCell id="UPQadzczAUyeNgyHqivV-40" value="科长审批" style="rounded=1;whiteSpace=wrap;html=1;fontSize=12;glass=0;strokeWidth=1;shadow=0;fillColor=#ffe6cc;strokeColor=#d79b00;" vertex="1" parent="UPQadzczAUyeNgyHqivV-36">
          <mxGeometry x="40" y="96" width="120" height="40" as="geometry" />
        </mxCell>
        <mxCell id="UPQadzczAUyeNgyHqivV-41" value="" style="edgeStyle=none;rounded=0;orthogonalLoop=1;jettySize=auto;html=1;fontSize=16;" edge="1" parent="UPQadzczAUyeNgyHqivV-36" source="UPQadzczAUyeNgyHqivV-42" target="UPQadzczAUyeNgyHqivV-43">
          <mxGeometry relative="1" as="geometry" />
        </mxCell>
        <mxCell id="UPQadzczAUyeNgyHqivV-42" value="分管领导审批" style="rounded=1;whiteSpace=wrap;html=1;fontSize=12;glass=0;strokeWidth=1;shadow=0;fillColor=#f8cecc;strokeColor=#b85450;" vertex="1" parent="UPQadzczAUyeNgyHqivV-36">
          <mxGeometry x="40" y="165" width="120" height="40" as="geometry" />
        </mxCell>
        <mxCell id="UPQadzczAUyeNgyHqivV-43" value="整改科确认" style="rounded=1;whiteSpace=wrap;html=1;fontSize=12;glass=0;strokeWidth=1;shadow=0;fillColor=#dae8fc;strokeColor=#6c8ebf;" vertex="1" parent="UPQadzczAUyeNgyHqivV-36">
          <mxGeometry x="40" y="230" width="120" height="40" as="geometry" />
        </mxCell>
        <mxCell id="UPQadzczAUyeNgyHqivV-44" value="&lt;h1&gt;&lt;font style=&quot;font-size: 20px;&quot;&gt;审核流程&lt;/font&gt;&lt;/h1&gt;&lt;div&gt;&lt;font style=&quot;font-size: 16px; line-height: 1.5;&quot;&gt;审核通过进入下一审核人直至审核结束，审核驳回则返回上一审核人。&lt;/font&gt;&lt;/div&gt;" style="text;html=1;strokeColor=none;fillColor=none;spacing=5;spacingTop=-20;whiteSpace=wrap;overflow=hidden;rounded=0;fontSize=14;fontColor=#000000;" vertex="1" parent="UPQadzczAUyeNgyHqivV-31">
          <mxGeometry x="25" y="100" width="190" height="140" as="geometry" />
        </mxCell>
        <mxCell id="UPQadzczAUyeNgyHqivV-45" value="被审计单位" style="swimlane;fontSize=16;fillColor=#fff2cc;strokeColor=#d6b656;" vertex="1" parent="WIyWlLk6GJQsqaUBKTNV-1">
          <mxGeometry x="500" y="50" width="200" height="770" as="geometry" />
        </mxCell>
        <mxCell id="UPQadzczAUyeNgyHqivV-46" value="在问题清单给出的截止期前必须提交“整改报告”" style="text;html=1;align=center;verticalAlign=middle;whiteSpace=wrap;rounded=0;fontSize=16;fontColor=#FF3333;" vertex="1" parent="UPQadzczAUyeNgyHqivV-45">
          <mxGeometry x="-80" y="403" width="182" height="37" as="geometry" />
        </mxCell>
      </root>
    </mxGraphModel>
  </diagram>
</mxfile>
